{"title":"Arrow S03E05 Greek Subs 720p HDTV XviD-N3kr4","uid":11393442,"size":1450208792,"categoryP":"video","categoryS":"hd___movies","magnet":"?xt=urn:btih:36a09ef1d7ed093757f0aa1a7c21f1f2bddecc72&amp;dn=Arrow+S03E05+Greek+Subs+720p+HDTV+XviD-N3kr4&amp;tr=udp%3A%2F%2Ftracker.openbittorrent.com%3A80&amp;tr=udp%3A%2F%2Fopen.demonii.com%3A1337&amp;tr=udp%3A%2F%2Ftracker.coppersurfer.tk%3A6969&amp;tr=udp%3A%2F%2Fexodus.desync.com%3A6969","seeders":2,"leechers":0,"uploader":"Falcon.G13","files":1,"time":1415357646,"description":" &lt;a href=&quot;http://i.imgur.com/T5GYGDl.jpg&quot; rel=&quot;nofollow&quot; target=&quot;_NEW&quot;&gt;http://i.imgur.com/T5GYGDl.jpg&lt;/a&gt;\n &lt;a href=&quot;\nhttp://i.imgur.com/oh9e27V.jpg&quot; rel=&quot;nofollow&quot; target=&quot;_NEW&quot;&gt;\nhttp://i.imgur.com/oh9e27V.jpg&lt;/a&gt;\n\nGeneral\nComplete name                  : Arrow S03E05 Greek Subs 720p HDTV XviD-N3kr4.avi\nFormat                         : AVI\nFormat/Info                    : Audio Video Interleave\nFormat profile                 : OpenDML\nFile size                      : 1.35 GiB\nDuration                       : 42mn 4s\nOverall bit rate               : 4 595 Kbps\nWriting application            : Lavf55.7.100\n\nVideo\nID                             : 0\nFormat                         : AVC\nFormat/Info                    : Advanced Video Codec\nFormat profile                 : &lt;a class=&quot;__cf_email__&quot; href=&quot;/cdn-cgi/l/email-protection&quot; data-cfemail=&quot;2a674b43446a661e041a&quot;&gt;[email&amp;#160;protected]&lt;/a&gt;&lt;script cf-hash='f9e31' type=&quot;text/javascript&quot;&gt;\n/* &lt;![CDATA[ */!function(){try{var t=&quot;currentScript&quot;in document?document.currentScript:function(){for(var t=document.getElementsByTagName(&quot;script&quot;),e=t.length;e--;)if(t[e].getAttribute(&quot;cf-hash&quot;))return t[e]}();if(t&amp;&amp;t.previousSibling){var e,r,n,i,c=t.previousSibling,a=c.getAttribute(&quot;data-cfemail&quot;);if(a){for(e=&quot;&quot;,r=parseInt(a.substr(0,2),16),n=2;a.length-n;n+=2)i=parseInt(a.substr(n,2),16)^r,e+=String.fromCharCode(i);e=document.createTextNode(e),c.parentNode.replaceChild(e,c)}}}catch(u){}}();/* ]]&gt; */&lt;/script&gt;\nFormat settings, CABAC         : Yes\nFormat settings, ReFrames      : 3 frames\nCodec ID                       : H264\nDuration                       : 42mn 4s\nBit rate                       : 4 326 Kbps\nWidth                          : 1 280 pixels\nHeight                         : 720 pixels\nDisplay aspect ratio           : 16:9\nFrame rate mode                : Variable\nFrame rate                     : 23.976 fps\nColor space                    : YUV\nChroma subsampling             : 4:2:0\nBit depth                      : 8 bits\nScan type                      : Progressive\nBits/(Pixel*Frame)             : 0.196\nStream size                    : 1.27 GiB (94%)\n\nAudio\nID                             : 1\nFormat                         : MPEG Audio\nFormat version                 : Version 1\nFormat profile                 : Layer 3\nMode                           : Joint stereo\nCodec ID                       : 55\nCodec ID/Hint                  : MP3\nDuration                       : 42mn 4s\nBit rate mode                  : Constant\nBit rate                       : 256 Kbps\nChannel(s)                     : 2 channels\nSampling rate                  : 44.1 KHz\nCompression mode               : Lossy\nStream size                    : 77.0 MiB (6%)\nAlignment                      : Aligned on interleaves\nInterleave, duration           : 26 ms (0.63 video frame)\nInterleave, preload duration   : 26 ms","torrent":{"xt":"urn:btih:36a09ef1d7ed093757f0aa1a7c21f1f2bddecc72","amp;dn":"Arrow+S03E05+Greek+Subs+720p+HDTV+XviD-N3kr4","amp;tr":["udp%3A%2F%2Ftracker.openbittorrent.com%3A80","udp%3A%2F%2Fopen.demonii.com%3A1337","udp%3A%2F%2Ftracker.coppersurfer.tk%3A6969","udp%3A%2F%2Fexodus.desync.com%3A6969"],"infoHash":"36a09ef1d7ed093757f0aa1a7c21f1f2bddecc72","infoHashBuffer":{"type":"Buffer","data":[54,160,158,241,215,237,9,55,87,240,170,26,124,33,241,242,189,222,204,114]},"announce":[],"urlList":[]}}